<svg xmlns="http://www.w3.org/2000/svg" 
width="27" height="27" 
fill="currentColor" viewBox="0 0 24 24">
        <path d="M12,21.3c-4.9,0-8.8-4-8.8-8.8c0-4.9,4-8.8,8.8-8.8c4.9,0,8.8,4,8.8,8.8C20.8,17.4,16.9,21.3,12,21.3z M12,4.7   c-4.3,0-7.8,3.5-7.8,7.8c0,4.3,3.5,7.8,7.8,7.8c4.3,0,7.8-3.5,7.8-7.8C19.8,8.2,16.3,4.7,12,4.7z"></path>
        <path d="M10.4,15.9C10.4,15.9,10.4,15.9,10.4,15.9c-0.2,0-0.3-0.1-0.4-0.2l-2.6-3.3c-0.2-0.2-0.1-0.5,0.1-0.7  c0.2-0.2,0.5-0.1,0.7,0.1l2.2,2.8l5.2-6c0.2-0.2,0.5-0.2,0.7-0.1c0.2,0.2,0.2,0.5,0.1,0.7l-5.6,6.5C10.7,15.9,10.6,15.9,10.4,15.9z"></path>
      </svg>