<svg xmlns="http://www.w3.org/2000/svg" width="1em" height="1em" fill="currentColor" viewBox="0 0 25 25">
    <path d="M12.1,16.6c-0.3,0-0.5-0.2-0.5-0.5c0-0.4,0-0.9,0-1.2l0-0.5c0-1.4,0.5-1.9,1.8-3.1c1.9-1.6,2.3-2.3,2.3-3.9
      c0-2-1.2-2.9-3.6-2.9c-1.9,0-2.6,0.7-2.6,2.3c0,0.3-0.2,0.5-0.5,0.5S8.3,7.1,8.3,6.8c0-2.3,1.2-3.4,3.7-3.4c4.1,0,4.7,2.5,4.7,4
      c0,2.1-0.7,3.1-2.6,4.7c-1.2,1.1-1.4,1.3-1.4,2.3l0,0.5c0,0.4,0,0.9,0,1.2C12.7,16.4,12.4,16.6,12.1,16.6z"></path>
    <path d="M12.3,21.6c-0.8,0-1.7-0.5-1.7-1.7c0-1.3,0.9-1.8,1.8-1.8c0.8,0,1.7,0.5,1.7,1.8C14.1,20.9,13.4,21.6,12.3,21.6z
      M12.4,19.1c-0.3,0-0.7,0.1-0.7,0.8c0,0.6,0.4,0.7,0.7,0.7c0.7,0,0.7-0.5,0.7-0.7C13.1,19.3,12.9,19.1,12.4,19.1z"></path>
  </svg>